<?xml version="1.0" standalone="no"?>
<!DOCTYPE svg PUBLIC "-//W3C//DTD SVG 20010904//EN"
 "http://www.w3.org/TR/2001/REC-SVG-20010904/DTD/svg10.dtd">
<svg version="1.0" xmlns="http://www.w3.org/2000/svg"
 width="2339.000000pt" height="1654.000000pt" viewBox="0 0 2339.000000 1654.000000"
 preserveAspectRatio="xMidYMid meet">

<g transform="translate(0.000000,1654.000000) scale(0.100000,-0.100000)"
fill="#000000" stroke="none">
<path d="M5115 14811 c-87 -39 -124 -128 -91 -216 18 -45 49 -77 177 -181 95
-77 128 -135 111 -193 -26 -86 -123 -127 -196 -82 -19 12 -48 41 -63 65 -29
44 -29 44 -56 28 -15 -9 -27 -20 -27 -25 0 -22 65 -99 103 -121 161 -95 354
32 315 207 -14 65 -54 114 -163 200 -55 43 -108 91 -117 105 -46 69 0 162 79
162 41 0 84 -23 117 -64 l21 -26 30 25 30 25 -46 43 c-71 66 -148 83 -224 48z"/>
<path d="M5800 14814 c-109 -29 -190 -100 -244 -214 -28 -59 -31 -74 -31 -165
0 -82 5 -109 23 -149 119 -261 452 -315 645 -106 73 79 98 145 98 260 0 112
-25 181 -93 255 -107 117 -248 159 -398 119z m214 -74 c69 -26 139 -88 174
-154 24 -45 27 -62 27 -146 0 -84 -3 -101 -27 -145 -55 -104 -148 -165 -263
-173 -131 -8 -237 55 -296 174 -28 57 -33 76 -32 142 0 50 6 91 17 117 71 167
240 245 400 185z"/>
<path d="M7873 14820 c-112 -24 -217 -105 -269 -207 -27 -54 -29 -66 -29 -168
0 -103 2 -114 32 -177 54 -115 143 -183 271 -208 133 -26 265 8 358 92 l55 51
-28 22 -28 23 -48 -44 c-114 -102 -283 -113 -410 -25 -60 41 -103 105 -123
182 -20 80 -12 150 27 228 33 67 67 99 143 139 44 23 63 27 141 27 105 0 157
-19 227 -83 l43 -40 28 22 28 23 -55 51 c-34 31 -78 59 -114 72 -64 25 -183
34 -249 20z"/>
<path d="M8920 14814 c-109 -29 -190 -100 -244 -214 -28 -59 -31 -74 -31 -165
0 -82 5 -109 23 -149 119 -261 452 -315 645 -106 73 79 98 145 98 260 0 112
-25 181 -93 255 -107 117 -248 159 -398 119z m214 -74 c69 -26 139 -88 174
-154 24 -45 27 -62 27 -146 0 -84 -3 -101 -27 -145 -55 -104 -148 -165 -263
-173 -131 -8 -237 55 -296 174 -28 57 -33 76 -32 142 0 50 6 91 17 117 71 167
240 245 400 185z"/>
<path d="M10955 14811 c-87 -39 -124 -128 -91 -216 18 -45 49 -77 177 -181 95
-77 128 -135 111 -193 -26 -86 -123 -127 -196 -82 -19 12 -48 41 -63 65 -29
44 -29 44 -56 28 -15 -9 -27 -20 -27 -25 0 -22 65 -99 103 -121 161 -95 354
32 315 207 -14 65 -54 114 -163 200 -55 43 -108 91 -117 105 -28 43 -23 98 11
133 50 50 128 35 185 -35 l21 -26 30 25 30 25 -46 43 c-71 66 -148 83 -224 48z"/>
<path d="M13355 14811 c-87 -39 -124 -128 -91 -216 18 -45 49 -77 177 -181 95
-77 128 -135 111 -193 -26 -86 -123 -127 -196 -82 -19 12 -48 41 -63 65 -29
44 -29 44 -56 28 -15 -9 -27 -20 -27 -25 0 -22 65 -99 103 -121 161 -95 354
32 315 207 -14 65 -54 114 -163 200 -55 43 -108 91 -117 105 -28 43 -23 98 11
133 50 50 128 35 185 -35 l21 -26 30 25 30 25 -46 43 c-71 66 -148 83 -224 48z"/>
<path d="M14040 14814 c-109 -29 -190 -100 -244 -214 -28 -59 -31 -74 -31
-165 0 -82 5 -109 23 -149 119 -261 452 -315 645 -106 73 79 98 145 98 260 0
112 -25 181 -93 255 -107 117 -248 159 -398 119z m214 -74 c69 -26 139 -88
174 -154 24 -45 27 -62 27 -146 0 -84 -3 -101 -27 -145 -55 -104 -148 -165
-263 -173 -131 -8 -237 55 -296 174 -28 57 -33 76 -32 142 0 50 6 91 17 117
71 167 240 245 400 185z"/>
<path d="M6450 14440 l0 -370 180 0 180 0 0 35 0 35 -145 0 -145 0 0 335 0
335 -35 0 -35 0 0 -370z"/>
<path d="M6920 14568 c1 -370 14 -424 123 -484 44 -25 63 -29 127 -29 64 0 82
4 123 28 58 35 93 86 107 156 5 30 10 170 10 312 l0 259 -35 0 -35 0 -1 -272
c-1 -276 -4 -306 -40 -356 -23 -32 -86 -62 -129 -62 -49 0 -120 38 -147 79
-23 33 -23 40 -23 322 l0 289 -40 0 -40 0 0 -242z"/>
<path d="M8420 14440 l0 -370 35 0 35 0 0 370 0 370 -35 0 -35 0 0 -370z"/>
<path d="M9560 14440 l0 -370 40 0 40 0 2 276 3 276 240 -276 c132 -152 243
-276 248 -276 4 0 7 167 7 370 l0 370 -35 0 -35 0 -2 -282 -3 -282 -245 282
c-134 155 -248 282 -252 282 -4 0 -8 -166 -8 -370z"/>
<path d="M10330 14440 l0 -370 210 0 210 0 0 35 0 35 -175 0 -175 0 0 150 0
150 175 0 175 0 0 35 0 35 -175 0 -175 0 0 115 0 115 175 0 175 0 0 35 0 35
-210 0 -210 0 0 -370z"/>
<path d="M11680 14439 l0 -371 183 5 c136 3 194 9 229 22 69 24 132 85 170
163 31 63 33 72 33 177 0 97 -3 116 -26 165 -73 157 -191 210 -468 210 l-121
0 0 -371z m305 290 c107 -20 174 -70 217 -164 18 -40 23 -68 23 -135 0 -98
-20 -154 -76 -209 -59 -60 -107 -74 -261 -79 l-138 -5 0 302 0 301 88 0 c49 0
115 -5 147 -11z"/>
<path d="M12440 14440 l0 -370 210 0 210 0 0 35 0 35 -175 0 -175 0 0 150 0
150 175 0 175 0 0 35 0 35 -175 0 -175 0 0 115 0 115 175 0 175 0 0 35 0 35
-210 0 -210 0 0 -370z"/>
<path d="M14690 14440 l0 -370 35 0 35 0 0 185 0 185 150 0 150 0 0 35 0 35
-150 0 -150 0 0 115 0 115 150 0 150 0 0 35 0 35 -185 0 -185 0 0 -370z"/>
<path d="M15120 14775 l0 -35 80 0 80 0 0 -335 0 -335 40 0 40 0 0 335 0 335
80 0 80 0 0 35 0 35 -200 0 -200 0 0 -35z"/>
<path d="M15594 14793 c3 -10 49 -171 102 -358 53 -187 100 -347 105 -355 6
-13 9 -12 15 5 83 216 213 526 220 523 5 -1 56 -123 114 -270 58 -147 107
-268 110 -268 3 0 52 161 109 357 57 196 105 363 108 370 4 9 -6 13 -33 13
l-39 0 -75 -260 c-41 -143 -77 -260 -80 -260 -3 0 -50 116 -106 258 -56 141
-105 256 -110 256 -5 -1 -54 -114 -109 -252 -55 -138 -103 -254 -107 -257 -4
-4 -11 10 -17 31 -6 22 -39 138 -74 259 l-63 220 -38 3 c-33 3 -37 1 -32 -15z"/>
<path d="M16735 14449 c-93 -198 -171 -365 -173 -370 -2 -5 14 -9 36 -9 l39 0
56 120 57 120 162 0 163 0 57 -120 56 -120 36 0 c20 0 36 3 36 8 -1 17 -337
726 -345 729 -6 2 -86 -159 -180 -358z m305 -65 c0 -2 -56 -4 -125 -4 -69 0
-125 4 -125 8 0 5 28 67 61 138 l62 129 63 -134 c35 -74 64 -136 64 -137z"/>
<path d="M17390 14440 l0 -370 35 0 35 0 0 176 0 175 22 -3 c16 -2 62 -55 153
-175 l130 -172 43 -1 c23 0 42 2 42 5 0 2 -58 80 -129 172 l-128 168 69 12
c38 6 84 22 104 33 100 62 102 241 5 306 -49 32 -120 44 -262 44 l-119 0 0
-370z m303 286 c46 -19 69 -49 74 -98 3 -32 -1 -52 -17 -76 -30 -48 -72 -62
-190 -62 l-100 0 0 125 0 125 100 0 c63 0 113 -5 133 -14z"/>
<path d="M18000 14440 l0 -370 210 0 210 0 0 35 0 35 -175 0 -175 0 0 150 0
150 175 0 175 0 0 35 0 35 -175 0 -175 0 0 115 0 115 175 0 175 0 0 35 0 35
-210 0 -210 0 0 -370z"/>
<path d="M14828 13468 c-65 -92 -64 -88 -26 -88 29 0 43 10 101 75 l68 75 -49
0 c-50 0 -50 0 -94 -62z"/>
<path d="M8963 13310 c-112 -24 -217 -105 -269 -207 -27 -54 -29 -66 -29 -168
0 -103 2 -114 32 -177 54 -115 143 -183 271 -208 133 -26 265 8 358 92 l55 51
-28 23 -28 22 -43 -40 c-56 -52 -120 -79 -198 -86 -80 -6 -146 10 -211 53 -65
43 -109 106 -129 186 -20 80 -12 150 27 228 33 67 67 99 143 139 44 23 63 27
141 27 105 0 157 -19 227 -83 l43 -40 28 22 28 23 -55 51 c-34 31 -78 59 -114
72 -64 25 -183 34 -249 20z"/>
<path d="M9780 13304 c-109 -29 -190 -100 -244 -214 -28 -59 -31 -74 -31 -165
0 -82 5 -109 23 -149 119 -261 452 -315 645 -106 73 79 98 145 98 260 0 112
-25 181 -93 255 -107 117 -248 159 -398 119z m214 -74 c69 -26 139 -88 174
-154 24 -45 27 -62 27 -146 0 -84 -3 -101 -27 -145 -55 -104 -148 -165 -263
-173 -131 -8 -237 55 -296 174 -28 57 -33 76 -32 142 0 50 6 91 17 117 70 166
240 244 400 185z"/>
<path d="M11255 13301 c-87 -39 -124 -128 -91 -216 18 -45 49 -77 177 -181 95
-77 128 -135 111 -193 -26 -86 -123 -127 -196 -82 -19 12 -48 41 -63 65 -29
44 -29 44 -56 28 -15 -9 -27 -20 -27 -25 0 -22 65 -99 103 -121 161 -95 354
32 315 207 -14 65 -54 114 -163 200 -115 91 -135 116 -135 174 0 34 5 46 31
67 53 45 128 30 183 -38 l21 -26 30 25 30 25 -46 43 c-71 66 -148 83 -224 48z"/>
<path d="M13540 13304 c-109 -29 -190 -100 -244 -214 -28 -59 -31 -74 -31
-165 0 -82 5 -109 23 -149 119 -261 452 -315 645 -106 73 79 98 145 98 260 0
112 -25 181 -93 255 -107 117 -248 159 -398 119z m214 -74 c69 -26 139 -88
174 -154 24 -45 27 -62 27 -146 0 -84 -3 -101 -27 -145 -55 -104 -148 -165
-263 -173 -131 -8 -237 55 -296 174 -28 57 -33 76 -32 142 0 50 6 91 17 117
70 166 240 244 400 185z"/>
<path d="M7743 13288 c3 -7 55 -94 116 -193 l111 -180 0 -177 0 -178 35 0 35
0 0 175 0 175 115 189 c63 104 115 192 115 195 0 3 -17 6 -39 6 l-38 0 -88
-145 c-48 -80 -92 -148 -96 -150 -4 -3 -49 62 -100 145 l-93 150 -39 0 c-27 0
-38 -4 -34 -12z"/>
<path d="M10420 12930 l0 -370 40 0 40 0 2 276 3 276 240 -276 c132 -152 243
-276 248 -276 4 0 7 167 7 370 l0 370 -35 0 -35 0 -2 -282 -3 -282 -245 282
c-134 155 -248 282 -252 282 -4 0 -8 -166 -8 -370z"/>
<path d="M11700 13058 c1 -370 14 -424 123 -484 44 -25 63 -29 127 -29 64 0
82 4 123 28 58 35 93 86 107 156 5 30 10 170 10 312 l0 259 -35 0 -34 0 -3
-282 c-3 -264 -4 -286 -24 -323 -25 -48 -89 -85 -148 -85 -51 0 -113 34 -143
79 -23 33 -23 39 -23 322 l0 289 -40 0 -40 0 0 -242z"/>
<path d="M12370 12930 l0 -370 180 0 180 0 0 35 0 35 -145 0 -145 0 0 335 0
335 -35 0 -35 0 0 -370z"/>
<path d="M12780 13265 l0 -35 80 0 80 0 0 -335 0 -335 40 0 40 0 0 335 0 335
80 0 80 0 0 35 0 35 -200 0 -200 0 0 -35z"/>
<path d="M14190 12930 l0 -370 35 0 35 0 0 176 0 175 22 -3 c16 -2 62 -55 153
-175 l130 -172 43 -1 c23 0 42 2 42 5 0 2 -58 80 -129 172 l-128 168 69 12
c38 6 84 22 104 33 100 62 102 241 5 306 -49 32 -120 44 -262 44 l-119 0 0
-370z m303 286 c46 -19 69 -49 74 -98 3 -32 -1 -52 -17 -76 -30 -48 -72 -62
-190 -62 l-100 0 0 125 0 125 100 0 c63 0 113 -5 133 -14z"/>
<path d="M14800 12930 l0 -370 35 0 35 0 0 370 0 370 -35 0 -35 0 0 -370z"/>
<path d="M15155 12939 c-93 -198 -171 -365 -173 -370 -2 -5 14 -9 36 -9 l39 0
56 120 57 120 162 0 163 0 57 -120 56 -120 36 0 c20 0 36 3 36 8 -1 17 -337
726 -345 729 -6 2 -86 -159 -180 -358z m305 -65 c0 -2 -56 -4 -125 -4 -69 0
-125 4 -125 8 0 5 28 67 61 138 l62 129 63 -134 c35 -74 64 -136 64 -137z"/>
<path d="M6201 10050 c-76 -32 -121 -98 -121 -175 0 -95 44 -148 166 -198 75
-31 79 -34 82 -67 8 -77 -94 -83 -121 -7 -5 14 -19 17 -83 17 l-76 0 7 -37 c3
-21 18 -57 31 -81 71 -122 255 -139 348 -31 104 122 53 279 -111 338 -32 12
-65 25 -73 30 -21 11 -24 45 -6 60 20 16 66 6 66 -14 0 -12 16 -15 81 -15 l81
0 -7 33 c-10 48 -55 108 -99 130 -44 23 -129 32 -165 17z"/>
<path d="M8141 10050 c-76 -32 -121 -98 -121 -175 0 -95 44 -148 166 -198 75
-31 79 -34 82 -67 8 -77 -94 -83 -121 -7 -5 14 -19 17 -83 17 l-76 0 7 -37 c3
-21 18 -57 31 -81 71 -122 255 -139 348 -31 104 122 53 279 -111 338 -32 12
-65 25 -73 30 -21 11 -24 45 -6 60 20 16 66 6 66 -14 0 -12 16 -15 81 -15 l81
0 -7 33 c-10 48 -55 108 -99 130 -44 23 -129 32 -165 17z"/>
<path d="M13021 10050 c-76 -32 -121 -98 -121 -175 0 -95 44 -148 166 -198 75
-31 79 -34 82 -67 8 -77 -94 -83 -121 -7 -5 14 -19 17 -83 17 l-76 0 7 -37 c3
-21 18 -57 31 -81 71 -122 255 -139 348 -31 104 122 53 279 -111 338 -32 12
-65 25 -73 30 -21 11 -24 45 -6 60 20 16 66 6 66 -14 0 -12 16 -15 81 -15 l81
0 -7 33 c-10 48 -55 108 -99 130 -44 23 -129 32 -165 17z"/>
<path d="M7024 9948 c18 -57 64 -201 101 -320 l69 -218 72 0 72 0 56 163 c31
89 76 221 100 292 l44 130 1 -292 1 -293 205 0 205 0 0 75 0 75 -130 0 -130 0
0 45 0 45 105 0 105 0 0 75 0 75 -105 0 -105 0 0 45 0 45 130 0 130 0 0 75 0
75 -158 0 c-88 0 -212 3 -278 6 l-119 7 -59 -179 c-32 -99 -61 -182 -65 -186
-4 -4 -31 75 -62 175 l-55 182 -81 3 -81 3 32 -103z"/>
<path d="M14910 9832 c0 -214 0 -219 -22 -240 -53 -48 -126 -32 -149 33 l-13
35 -73 0 c-73 0 -73 0 -73 -27 0 -44 43 -125 87 -164 52 -47 100 -62 178 -57
74 5 129 36 174 99 42 58 51 115 51 339 l0 200 -80 0 -80 0 0 -218z"/>
<path d="M6540 9725 l0 -315 75 0 75 0 0 315 0 315 -75 0 -75 0 0 -315z"/>
<path d="M8765 10011 c-212 -101 -250 -367 -76 -523 69 -62 129 -82 233 -76
75 5 80 4 97 -20 l18 -25 61 42 61 41 -17 29 c-15 27 -15 31 0 48 38 42 68
126 68 194 0 99 -23 153 -94 225 -71 71 -126 94 -225 94 -52 0 -79 -6 -126
-29z m222 -152 c48 -30 76 -90 71 -151 -8 -76 -21 -79 -64 -14 l-37 56 -26
-17 c-112 -72 -107 -62 -66 -118 41 -56 41 -58 4 -50 -113 24 -170 135 -120
234 44 85 153 113 238 60z"/>
<path d="M9250 9823 c1 -151 5 -229 14 -254 56 -157 258 -211 385 -102 22 18
50 54 63 81 22 44 23 60 26 270 l4 222 -81 0 -81 0 0 -213 c0 -209 -1 -214
-22 -234 -32 -29 -65 -37 -99 -22 -53 22 -59 47 -59 269 l0 200 -75 0 -75 0 0
-217z"/>
<path d="M9800 9725 l0 -315 205 0 205 0 0 75 0 75 -130 0 -130 0 0 45 0 45
105 0 105 0 0 75 0 75 -105 0 -105 0 0 45 0 45 130 0 130 0 0 75 0 75 -205 0
-205 0 0 -315z"/>
<path d="M10430 9725 l0 -315 75 0 75 0 0 50 c0 48 1 50 28 50 39 0 122 42
159 81 127 134 83 351 -87 428 -36 16 -66 21 -147 21 l-103 0 0 -315z m194
150 c37 -18 66 -62 66 -100 0 -38 -29 -82 -66 -100 -18 -8 -35 -15 -38 -15 -3
0 -6 52 -6 115 0 63 3 115 6 115 3 0 20 -7 38 -15z"/>
<path d="M10920 9823 c1 -151 5 -229 14 -254 56 -157 258 -211 385 -102 22 18
50 54 63 81 22 44 23 60 26 270 l4 222 -81 0 -81 0 0 -213 c0 -209 -1 -214
-22 -234 -32 -29 -65 -37 -99 -22 -53 22 -59 47 -59 269 l0 200 -75 0 -75 0 0
-217z"/>
<path d="M11480 9725 l0 -315 205 0 205 0 0 75 0 75 -130 0 -130 0 0 45 0 45
105 0 105 0 0 75 0 75 -105 0 -105 0 0 45 0 45 130 0 130 0 0 75 0 75 -205 0
-205 0 0 -315z"/>
<path d="M11940 9726 l0 -316 100 0 c163 0 259 52 319 172 77 154 13 344 -144
426 -43 23 -65 27 -162 30 l-113 4 0 -316z m220 142 c18 -13 42 -35 53 -50 28
-37 34 -125 13 -166 -19 -37 -70 -78 -108 -87 l-28 -7 0 166 c0 155 1 166 19
166 10 0 33 -10 51 -22z"/>
<path d="M12420 9725 l0 -315 205 0 205 0 0 75 0 75 -130 0 -130 0 0 45 0 45
105 0 105 0 0 75 0 75 -105 0 -105 0 0 45 0 45 130 0 130 0 0 75 0 75 -205 0
-205 0 0 -315z"/>
<path d="M13506 9988 c-6 -54 -36 -520 -36 -557 0 -19 6 -21 74 -21 l73 0 7
53 c3 28 6 80 6 115 0 34 4 62 8 62 4 0 25 -52 45 -115 l38 -115 77 0 77 0 41
118 42 117 7 -117 7 -118 74 0 74 0 0 53 c0 28 -7 153 -15 277 -8 124 -15 242
-15 263 l0 37 -79 0 -79 0 -40 -112 c-22 -62 -50 -146 -63 -185 -12 -40 -26
-73 -29 -73 -3 0 -35 83 -70 185 l-65 185 -77 0 -77 0 -5 -52z"/>
<path d="M14150 9725 l0 -315 205 0 205 0 0 75 0 75 -130 0 -130 0 0 45 0 45
105 0 105 0 0 75 0 75 -105 0 -105 0 0 45 0 45 130 0 130 0 0 75 0 75 -205 0
-205 0 0 -315z"/>
<path d="M15310 10023 c-29 -10 -67 -38 -106 -77 -70 -71 -94 -126 -94 -221 0
-95 24 -150 94 -221 76 -76 133 -98 239 -92 86 4 147 31 207 90 156 150 110
412 -88 510 -61 30 -186 35 -252 11z m200 -158 c50 -26 75 -72 75 -140 0 -100
-59 -159 -161 -159 -92 0 -164 69 -164 159 0 124 135 200 250 140z"/>
<path d="M15780 9726 l0 -316 75 0 75 0 0 80 c0 76 1 80 23 80 17 0 33 -19 70
-80 l49 -80 89 0 89 0 -69 113 -70 112 24 25 c74 77 72 214 -3 293 -15 16 -47
41 -72 55 -41 24 -57 27 -162 31 l-118 3 0 -316z m190 154 c21 0 70 -53 70
-77 0 -33 -51 -83 -84 -83 -26 0 -26 0 -26 86 0 74 2 85 16 80 9 -3 19 -6 24
-6z"/>
<path d="M16380 9738 c-57 -167 -105 -309 -108 -315 -3 -10 16 -13 76 -13 l80
0 12 35 12 35 97 0 97 0 13 -35 12 -35 81 0 c60 0 79 3 75 13 -10 26 -197 607
-197 612 0 3 -33 5 -74 5 l-74 0 -102 -302z m177 -106 c-22 -2 -41 -1 -44 2
-3 2 5 35 18 73 l22 68 22 -70 21 -70 -39 -3z"/>
<path d="M16870 9726 l0 -316 75 0 75 0 0 80 c0 76 1 80 23 80 17 0 33 -19 70
-80 l49 -80 89 0 89 0 -69 113 -70 112 24 25 c74 77 72 214 -3 293 -15 16 -47
41 -72 55 -41 24 -57 27 -162 31 l-118 3 0 -316z m190 154 c21 0 70 -53 70
-77 0 -33 -51 -83 -84 -83 -26 0 -26 0 -26 86 0 74 2 85 16 80 9 -3 19 -6 24
-6z"/>
<path d="M9381 8780 c-76 -32 -121 -98 -121 -175 0 -95 44 -148 166 -198 75
-31 79 -34 82 -67 8 -77 -94 -83 -121 -7 -5 14 -19 17 -83 17 l-76 0 7 -37 c3
-21 18 -57 31 -81 71 -122 255 -139 348 -31 104 122 53 279 -111 338 -32 12
-65 25 -73 30 -21 11 -24 45 -6 60 20 16 66 6 66 -14 0 -12 16 -15 81 -15 l81
0 -7 33 c-10 48 -55 108 -99 130 -44 23 -129 32 -165 17z"/>
<path d="M12981 8780 c-76 -32 -121 -98 -121 -175 0 -95 44 -148 166 -198 75
-31 79 -34 82 -67 8 -77 -94 -83 -121 -7 -5 14 -19 17 -83 17 l-76 0 7 -37 c3
-21 18 -57 31 -81 71 -122 255 -139 348 -31 104 122 53 279 -111 338 -32 12
-65 25 -73 30 -21 11 -24 45 -6 60 20 16 66 6 66 -14 0 -12 16 -15 81 -15 l81
0 -7 33 c-10 48 -55 108 -99 130 -44 23 -129 32 -165 17z"/>
<path d="M15661 8780 c-76 -32 -121 -98 -121 -175 0 -95 44 -148 166 -198 75
-31 79 -34 82 -67 8 -77 -94 -83 -121 -7 -5 14 -19 17 -83 17 l-76 0 7 -37 c3
-21 18 -57 31 -81 71 -122 255 -139 348 -31 104 122 53 279 -111 338 -32 12
-65 25 -73 30 -21 11 -24 45 -6 60 20 16 66 6 66 -14 0 -12 16 -15 81 -15 l81
0 -7 33 c-10 48 -55 108 -99 130 -44 23 -129 32 -165 17z"/>
<path d="M7470 8455 l0 -315 75 0 75 0 0 50 c0 48 1 50 28 50 39 0 122 42 159
81 127 134 83 351 -87 428 -36 16 -66 21 -147 21 l-103 0 0 -315z m194 150
c37 -18 66 -62 66 -100 0 -38 -29 -82 -66 -100 -18 -8 -35 -15 -38 -15 -3 0
-6 52 -6 115 0 63 3 115 6 115 3 0 20 -7 38 -15z"/>
<path d="M7960 8455 l0 -315 75 0 75 0 0 315 0 315 -75 0 -75 0 0 -315z"/>
<path d="M8190 8455 l0 -315 205 0 205 0 0 75 0 75 -130 0 -130 0 0 45 0 45
105 0 105 0 0 75 0 75 -105 0 -105 0 0 45 0 45 130 0 130 0 0 75 0 75 -205 0
-205 0 0 -315z"/>
<path d="M8670 8455 l0 -315 75 0 75 0 2 175 3 175 98 -175 99 -175 84 0 84 0
0 315 0 315 -80 0 -80 0 -2 -171 -3 -171 -95 171 -95 171 -82 0 -83 0 0 -315z"/>
<path d="M9790 8468 c-57 -167 -105 -309 -108 -315 -3 -10 16 -13 76 -13 l80
0 12 35 12 35 97 0 97 0 13 -35 12 -35 81 0 c60 0 79 3 75 13 -10 26 -197 607
-197 612 0 3 -33 5 -74 5 l-74 0 -102 -302z m177 -106 c-22 -2 -41 -1 -44 2
-3 2 5 35 18 73 l22 68 22 -70 21 -70 -39 -3z"/>
<path d="M10420 8455 l0 -315 205 0 205 0 0 75 0 75 -130 0 -130 0 0 45 0 45
105 0 105 0 0 75 0 75 -105 0 -105 0 0 45 0 45 130 0 130 0 0 75 0 75 -205 0
-205 0 0 -315z"/>
<path d="M10900 8455 l0 -315 75 0 75 0 2 175 3 175 98 -175 99 -175 84 0 84
0 0 315 0 315 -80 0 -80 0 -2 -171 -3 -171 -95 171 -95 171 -82 0 -83 0 0
-315z"/>
<path d="M11630 8455 l0 -315 75 0 75 0 2 175 3 175 98 -175 99 -175 84 0 84
0 0 315 0 315 -80 0 -80 0 -2 -171 -3 -171 -95 171 -95 171 -82 0 -83 0 0
-315z"/>
<path d="M12390 8753 c-29 -10 -67 -38 -106 -77 -70 -71 -94 -126 -94 -221 0
-95 24 -150 94 -221 76 -76 133 -98 239 -92 86 4 147 31 207 90 156 150 110
412 -88 510 -61 30 -186 35 -252 11z m200 -158 c50 -26 75 -72 75 -140 0 -100
-59 -159 -161 -159 -92 0 -164 69 -164 159 0 124 135 200 250 140z"/>
<path d="M13480 8753 c-29 -10 -67 -38 -106 -77 -70 -71 -94 -126 -94 -221 0
-95 24 -150 94 -221 76 -76 133 -98 239 -92 86 4 147 31 207 90 156 150 110
412 -88 510 -61 30 -186 35 -252 11z m200 -158 c50 -26 75 -72 75 -140 0 -100
-59 -159 -161 -159 -92 0 -164 69 -164 159 0 124 135 200 250 140z"/>
<path d="M13920 8695 l0 -75 65 0 65 0 0 -240 0 -240 75 0 75 0 0 240 0 240
60 0 60 0 0 75 0 75 -200 0 -200 0 0 -75z"/>
<path d="M14380 8456 l0 -316 75 0 75 0 0 80 c0 76 1 80 23 80 17 0 33 -19 70
-80 l49 -80 89 0 89 0 -69 113 -70 112 24 25 c74 77 72 214 -3 293 -15 16 -47
41 -72 55 -41 24 -57 27 -162 31 l-118 3 0 -316z m190 154 c21 0 70 -53 70
-77 0 -33 -51 -83 -84 -83 -26 0 -26 0 -26 86 0 74 2 85 16 80 9 -3 19 -6 24
-6z"/>
<path d="M15070 8753 c-29 -10 -67 -38 -106 -77 -70 -71 -94 -126 -94 -221 0
-95 24 -150 94 -221 76 -76 133 -98 239 -92 86 4 147 31 207 90 156 150 110
412 -88 510 -61 30 -186 35 -252 11z m200 -158 c50 -26 75 -72 75 -140 0 -100
-59 -159 -161 -159 -92 0 -164 69 -164 159 0 124 135 200 250 140z"/>
<path d="M4040 6101 l0 -121 627 0 626 0 -24 26 c-60 65 -221 154 -344 190
-52 15 -116 18 -472 21 l-413 4 0 -120z"/>
<path d="M4040 5385 l0 -465 805 0 c495 0 805 4 805 9 0 20 -123 172 -181 223
l-61 54 21 43 c34 66 61 186 61 271 0 88 -27 205 -65 279 l-25 51 -680 0 -680
0 0 -465z"/>
<path d="M4040 4139 l0 -460 468 4 c500 4 494 3 647 60 350 129 595 451 595
783 l0 74 -855 0 -855 0 0 -461z"/>
<path d="M12685 4180 c-33 -46 -126 -179 -207 -295 l-147 -210 175 -3 174 -2
0 -85 0 -85 35 0 35 0 0 85 0 85 45 0 c45 0 45 0 45 35 0 35 0 35 -45 35 l-45
0 -2 263 -3 262 -60 -85z m-8 -437 c-3 -2 -52 -2 -109 -1 l-105 3 106 153 106
152 3 -151 c1 -84 1 -154 -1 -156z"/>
<path d="M13356 4246 c-77 -29 -126 -83 -147 -160 -24 -87 17 -193 93 -244 35
-23 52 -27 110 -27 37 0 68 -1 68 -3 0 -1 -31 -49 -68 -105 -38 -56 -81 -121
-95 -144 l-27 -42 29 -20 28 -20 131 197 c163 245 175 271 170 368 -3 61 -8
79 -34 116 -55 79 -170 117 -258 84z m162 -83 c62 -46 83 -134 49 -200 -40
-75 -150 -107 -216 -61 -57 38 -76 73 -76 133 0 60 19 95 76 133 28 20 43 23
87 20 32 -3 64 -13 80 -25z"/>
<path d="M11916 4228 c-5 -14 -66 -341 -66 -350 0 -3 26 4 58 15 71 24 160 20
199 -9 54 -40 68 -70 68 -143 0 -57 -4 -74 -28 -109 -37 -57 -95 -86 -160 -79
-60 5 -96 30 -122 85 -18 38 -23 41 -58 42 -35 0 -38 -2 -31 -22 17 -58 34
-86 72 -120 97 -87 255 -73 344 32 96 112 73 301 -47 375 -43 27 -57 30 -127
30 -43 0 -78 2 -78 4 0 3 7 47 17 98 l16 93 129 0 128 0 0 35 0 35 -155 0
c-116 0 -157 -3 -159 -12z"/>
<path d="M13871 4078 c56 -90 105 -171 110 -181 8 -14 -13 -55 -106 -203 -63
-102 -115 -188 -115 -190 0 -3 19 -4 42 -2 l42 3 90 147 c50 80 94 149 97 152
3 3 48 -64 100 -149 l94 -155 43 0 44 0 -23 38 c-13 20 -63 102 -112 181 -49
80 -91 150 -94 156 -2 7 42 86 97 175 56 90 104 169 107 177 4 9 -6 13 -34 13
l-40 0 -84 -137 c-46 -75 -89 -136 -94 -137 -6 0 -48 61 -94 137 l-84 137 -43
0 -43 0 100 -162z"/>
<path d="M14501 4078 c56 -90 105 -171 110 -181 8 -14 -13 -55 -106 -203 -63
-102 -115 -188 -115 -190 0 -3 19 -4 41 -2 l42 3 91 147 c50 80 94 149 97 152
3 3 48 -64 100 -149 l94 -155 43 0 44 0 -23 38 c-13 20 -63 102 -112 181 -49
80 -91 150 -94 156 -2 7 42 86 97 175 56 90 104 169 107 177 4 9 -6 13 -34 13
l-40 0 -84 -137 c-46 -75 -89 -136 -94 -136 -6 0 -48 61 -94 136 l-84 137 -43
0 -43 0 100 -162z"/>
<path d="M15131 4078 c56 -90 105 -171 110 -181 8 -14 -13 -55 -106 -203 -63
-102 -115 -188 -115 -190 0 -3 19 -4 41 -2 l42 3 91 147 c50 80 94 149 97 152
3 3 48 -64 100 -149 l94 -155 43 0 c32 0 41 3 36 13 -4 6 -54 88 -112 181 -57
92 -106 174 -108 181 -3 6 41 86 96 175 56 90 104 169 107 177 4 9 -6 13 -34
13 l-40 0 -84 -137 c-46 -75 -89 -136 -94 -137 -6 0 -48 61 -94 137 l-84 137
-43 0 -43 0 100 -162z"/>
<path d="M16041 4078 c56 -90 105 -171 110 -181 8 -14 -13 -55 -106 -203 -63
-102 -115 -188 -115 -190 0 -3 19 -4 42 -2 l42 3 90 147 c50 80 94 149 97 152
3 3 48 -64 100 -149 l94 -155 43 0 44 0 -23 38 c-13 20 -63 102 -112 181 -49
80 -91 150 -94 156 -2 7 42 86 97 175 56 90 104 169 107 177 4 9 -6 13 -34 13
l-40 0 -84 -137 c-46 -75 -89 -136 -94 -137 -6 0 -48 61 -94 137 l-84 137 -43
0 -43 0 100 -162z"/>
<path d="M16671 4078 c56 -90 105 -171 110 -181 8 -14 -13 -55 -106 -203 -63
-102 -115 -188 -115 -190 0 -3 19 -4 42 -2 l42 3 90 147 c50 80 94 149 97 152
3 3 48 -64 100 -149 l94 -155 43 0 44 0 -23 38 c-13 20 -63 102 -112 181 -49
80 -91 150 -94 156 -2 7 42 86 97 175 56 90 104 169 107 177 4 9 -6 13 -34 13
l-40 0 -84 -137 c-46 -75 -89 -136 -94 -137 -6 0 -48 61 -94 137 l-84 137 -43
0 -43 0 100 -162z"/>
<path d="M17301 4078 c56 -90 105 -171 110 -181 8 -14 -13 -55 -106 -203 -63
-102 -115 -188 -115 -190 0 -3 19 -4 41 -2 l42 3 91 147 c50 80 94 149 97 152
3 3 48 -64 100 -149 l94 -155 43 0 44 0 -23 38 c-13 20 -63 102 -112 181 -49
80 -91 150 -94 156 -2 7 42 86 97 175 56 90 104 169 107 177 4 9 -6 13 -34 13
l-40 0 -84 -137 c-46 -75 -89 -136 -94 -136 -6 0 -48 61 -94 136 l-84 137 -43
0 -43 0 100 -162z"/>
<path d="M18211 4078 c56 -90 105 -171 110 -181 8 -14 -13 -55 -106 -203 -63
-102 -115 -188 -115 -190 0 -3 19 -4 42 -2 l42 3 90 147 c50 80 94 149 97 152
3 3 48 -64 100 -149 l94 -155 43 0 c32 0 41 3 36 13 -4 6 -54 88 -112 181 -57
92 -106 174 -108 181 -3 6 41 86 96 175 56 90 104 169 107 177 4 9 -6 13 -34
13 l-40 0 -84 -137 c-46 -75 -89 -136 -94 -137 -6 0 -48 61 -94 137 l-84 137
-43 0 -43 0 100 -162z"/>
<path d="M18841 4078 c56 -90 105 -171 110 -181 8 -14 -13 -55 -106 -203 -63
-102 -115 -188 -115 -190 0 -3 19 -4 42 -2 l42 3 90 147 c50 80 94 149 97 152
3 3 48 -64 100 -149 l94 -155 43 0 44 0 -23 38 c-13 20 -63 102 -112 181 -49
80 -91 150 -94 156 -2 7 42 86 97 175 56 90 104 169 107 177 4 9 -6 13 -34 13
l-40 0 -84 -137 c-46 -75 -89 -136 -94 -137 -6 0 -48 61 -94 137 l-84 137 -43
0 -43 0 100 -162z"/>
<path d="M19461 4078 c56 -90 105 -171 110 -181 8 -14 -13 -55 -106 -203 -63
-102 -115 -188 -115 -190 0 -3 19 -4 41 -2 l42 3 91 147 c50 80 94 149 97 152
3 3 48 -64 100 -149 l94 -155 43 0 44 0 -23 38 c-13 20 -63 102 -112 181 -49
80 -91 150 -94 156 -2 7 42 86 97 175 56 90 104 169 107 177 4 9 -6 13 -34 13
l-40 0 -84 -137 c-46 -75 -89 -136 -94 -136 -6 0 -48 61 -94 136 l-84 137 -43
0 -43 0 100 -162z"/>
<path d="M20091 4078 c56 -90 105 -171 110 -181 8 -14 -13 -55 -106 -203 -63
-102 -115 -188 -115 -190 0 -3 19 -4 41 -2 l42 3 91 147 c50 80 94 149 97 152
3 3 48 -64 100 -149 l94 -155 43 0 c32 0 41 3 36 13 -4 6 -54 88 -112 181 -57
92 -106 174 -108 181 -3 6 41 86 96 175 56 90 104 169 107 177 4 9 -6 13 -34
13 l-40 0 -84 -137 c-46 -75 -89 -136 -94 -137 -6 0 -48 61 -94 137 l-84 137
-43 0 -43 0 100 -162z"/>
<path d="M11380 4020 l0 -110 -110 0 -110 0 0 -35 0 -35 110 0 110 0 0 -110 0
-110 35 0 35 0 0 110 0 110 110 0 110 0 0 35 0 35 -110 0 -110 0 0 110 0 110
-35 0 -35 0 0 -110z"/>
<path d="M1790 2301 l0 -551 183 0 c132 0 199 4 242 15 124 33 226 112 273
213 23 49 27 70 27 147 0 108 -20 159 -90 234 l-46 49 17 58 c41 143 -26 277
-175 348 -65 30 -69 31 -248 34 l-183 4 0 -551z m344 278 c14 -11 26 -27 26
-34 0 -25 -51 -55 -91 -55 l-39 0 0 48 c0 27 3 52 7 55 14 14 71 6 97 -14z
m38 -349 c49 -14 98 -71 98 -113 0 -24 -9 -42 -33 -65 -39 -38 -81 -52 -154
-52 l-53 0 0 120 0 120 53 0 c28 0 69 -5 89 -10z"/>
<path d="M4450 2300 l0 -550 138 0 c237 0 355 41 477 164 112 113 157 222 156
386 -1 157 -47 266 -161 381 -56 57 -93 85 -150 112 -96 45 -162 57 -327 57
l-133 0 0 -550z m357 263 c179 -84 223 -332 84 -471 -34 -34 -109 -74 -163
-86 l-28 -6 0 300 0 300 28 -6 c15 -3 51 -17 79 -31z"/>
<path d="M2810 2533 c-58 -169 -141 -415 -186 -545 l-81 -238 133 0 132 0 22
65 22 65 173 0 173 0 22 -65 22 -65 129 0 c71 0 129 3 129 8 0 4 -78 248 -174
542 l-173 535 -119 3 -119 3 -105 -308z m267 -278 l41 -125 -90 0 c-68 0 -89
3 -86 13 3 6 22 63 43 125 22 61 42 112 45 112 3 0 24 -56 47 -125z"/>
<path d="M3580 2296 l0 -546 120 0 119 0 3 138 3 137 41 3 41 3 88 -140 87
-141 144 0 c79 0 144 2 144 5 0 3 -52 89 -115 191 -63 102 -115 188 -115 191
0 3 20 27 44 55 62 67 89 142 89 243 1 67 -4 90 -26 139 -52 113 -134 187
-262 236 -52 20 -83 24 -232 28 l-173 4 0 -546z m366 259 c128 -75 97 -216
-59 -265 -66 -21 -67 -18 -67 143 0 79 3 147 7 151 12 12 75 -4 119 -29z"/>
<path d="M5270 2295 l0 -545 350 0 350 0 0 125 0 125 -225 0 -225 0 0 90 0 90
180 0 180 0 0 125 0 125 -180 0 -180 0 0 80 0 80 225 0 225 0 0 125 0 125
-350 0 -350 0 0 -545z"/>
<path d="M6090 2295 l0 -545 350 0 350 0 0 125 0 125 -225 0 -225 0 0 90 0 90
180 0 180 0 0 125 0 125 -180 0 -180 0 0 80 0 80 225 0 225 0 0 125 0 125
-350 0 -350 0 0 -545z"/>
<path d="M6920 2295 l0 -545 120 0 120 0 0 318 c1 267 3 314 14 299 7 -9 89
-152 182 -317 l169 -300 138 0 137 0 0 545 0 545 -125 0 -125 0 0 -317 c-1
-273 -3 -315 -15 -300 -7 10 -88 153 -180 318 l-167 299 -134 0 -134 0 0 -545z"/>
</g>
</svg>
