<?xml version="1.0" standalone="no"?>
<!DOCTYPE svg PUBLIC "-//W3C//DTD SVG 20010904//EN"
 "http://www.w3.org/TR/2001/REC-SVG-20010904/DTD/svg10.dtd">
<svg version="1.0" xmlns="http://www.w3.org/2000/svg"
 width="1654.000000pt" height="2339.000000pt" viewBox="0 0 1654.000000 2339.000000"
 preserveAspectRatio="xMidYMid meet">

<g transform="translate(0.000000,2339.000000) scale(0.100000,-0.100000)"
fill="#000000" stroke="none">
<path d="M6910 16386 l0 -196 1058 0 1057 1 -50 45 c-159 142 -400 261 -643
316 -93 21 -123 22 -759 25 l-663 4 0 -195z"/>
<path d="M6910 15170 l0 -790 1365 0 c840 0 1365 4 1365 9 0 5 -28 51 -62 102
-59 89 -242 286 -317 342 l-35 26 42 88 c23 48 54 133 69 188 23 88 26 119 26
255 0 171 -11 238 -63 380 -16 47 -44 109 -60 138 l-30 52 -1150 0 -1150 0 0
-790z"/>
<path d="M6910 13065 l0 -785 703 0 c416 0 737 4 787 10 260 31 537 135 755
282 419 281 655 700 655 1160 l0 118 -1450 0 -1450 0 0 -785z"/>
<path d="M3080 9940 l0 -932 338 4 c382 5 393 7 552 85 78 38 109 60 175 127
134 135 192 276 182 446 -9 153 -67 279 -183 393 l-65 64 21 48 c117 272 -52
579 -370 672 -43 12 -120 17 -352 20 l-298 5 0 -932z m557 489 c129 -49 72
-159 -83 -159 l-54 0 0 85 0 85 54 0 c30 0 67 -5 83 -11z m90 -604 c104 -31
173 -105 173 -185 0 -56 -25 -99 -81 -140 -59 -42 -127 -60 -231 -60 l-88 0 0
200 0 200 88 0 c49 0 111 -7 139 -15z"/>
<path d="M7610 9941 l0 -931 229 0 c328 0 471 31 647 140 306 189 462 503 432
873 -30 381 -317 714 -703 818 -70 19 -113 23 -342 27 l-263 4 0 -931z m595
450 c315 -156 393 -561 154 -800 -79 -79 -224 -151 -306 -151 l-23 0 0 501 0
502 48 -7 c26 -3 83 -24 127 -45z"/>
<path d="M4672 9942 c-172 -504 -312 -920 -312 -924 0 -5 100 -8 223 -8 l223
0 18 58 c10 31 27 81 38 110 l19 52 294 0 293 0 37 -110 37 -110 223 0 224 0
-24 73 c-13 39 -133 407 -265 817 -133 410 -257 793 -276 853 l-36 107 -201 0
-202 0 -313 -918z m654 -264 c5 -17 -6 -18 -145 -18 -83 0 -151 2 -151 4 0 5
129 382 142 416 9 22 19 -1 79 -180 38 -113 72 -213 75 -222z"/>
<path d="M6120 9935 l0 -925 210 0 210 0 0 230 c0 176 3 232 13 234 6 3 38 7
69 10 l56 6 149 -240 148 -239 253 -1 252 0 -23 38 c-13 20 -105 168 -205 329
l-181 292 57 59 c70 73 115 147 150 244 22 62 26 90 26 188 1 125 -10 180 -55
272 -42 86 -80 137 -157 210 -115 109 -276 185 -436 207 -43 6 -181 11 -307
11 l-229 0 0 -925z m525 480 c97 -26 179 -85 216 -157 25 -49 25 -127 -1 -177
-42 -83 -158 -155 -272 -168 l-48 -6 0 262 0 261 23 0 c12 0 49 -7 82 -15z"/>
<path d="M8990 9935 l0 -925 595 0 595 0 0 215 0 215 -385 0 -386 0 3 143 3
142 308 3 307 2 0 215 0 215 -310 0 -311 0 3 133 3 132 383 3 382 2 0 215 0
215 -595 0 -595 0 0 -925z"/>
<path d="M10370 9935 l0 -925 595 0 595 0 0 215 0 215 -385 0 -386 0 3 143 3
142 308 3 307 2 0 215 0 215 -310 0 -310 0 0 135 0 135 385 0 385 0 0 215 0
215 -595 0 -595 0 0 -925z"/>
<path d="M12849 10323 c0 -509 -1 -537 -17 -514 -9 14 -145 252 -303 530
l-285 506 -232 3 -232 2 0 -920 0 -920 210 0 210 0 0 538 c1 442 3 534 14 520
7 -9 144 -251 305 -538 l293 -520 229 0 229 0 0 925 0 925 -210 0 -210 0 -1
-537z"/>
</g>
</svg>
